HIERARCHY
ROOT Hips
{
  OFFSET -32.5998 29.0326 120.673
  CHANNELS 6 Xposition Yposition Zposition Zrotation Xrotation Yrotation
  JOINT LeftUpLeg
  {
    OFFSET 8.64259 1.95398 -2.38835
    CHANNELS 3 Zrotation Xrotation Yrotation
    JOINT LeftLeg
    {
      OFFSET 43.7702 0 0
      CHANNELS 3 Zrotation Xrotation Yrotation
      JOINT LeftFoot
      {
        OFFSET 40.6238 0 0
        CHANNELS 3 Zrotation Xrotation Yrotation
        JOINT LeftToeBase
        {
          OFFSET 12.7242 0 0
          CHANNELS 3 Zrotation Xrotation Yrotation
          End Site
          {
            OFFSET 0 0 0
          }
        }
      }
    }
  }
  JOINT RightUpLeg
  {
    OFFSET -8.2249 1.95398 -2.59336
    CHANNELS 3 Zrotation Xrotation Yrotation
    JOINT RightLeg
    {
      OFFSET 43.5653 0 0
      CHANNELS 3 Zrotation Xrotation Yrotation
      JOINT RightFoot
      {
        OFFSET 40.6238 0 0
        CHANNELS 3 Zrotation Xrotation Yrotation
        JOINT RightToeBase
        {
          OFFSET 12.7242 0 0
          CHANNELS 3 Zrotation Xrotation Yrotation
          End Site
          {
            OFFSET 0 0 0
          }
        }
      }
    }
  }
  JOINT Spine
  {
    OFFSET 0.165834 0.87714 6.61349
    CHANNELS 3 Zrotation Xrotation Yrotation
    JOINT Spine1
    {
      OFFSET 7.38963 1.71661e-005 0
      CHANNELS 3 Zrotation Xrotation Yrotation
      JOINT Spine2
      {
        OFFSET 11.9445 1.14441e-005 0
        CHANNELS 3 Zrotation Xrotation Yrotation
        JOINT Spine3
        {
          OFFSET 14.7254 4.19617e-005 0
          CHANNELS 3 Zrotation Xrotation Yrotation
          JOINT Spine4
          {
            OFFSET 10.9679 0 0
            CHANNELS 3 Zrotation Xrotation Yrotation
            JOINT RightShoulder
            {
              OFFSET 2.46616 -1.6653 3.69651
              CHANNELS 3 Zrotation Xrotation Yrotation
              JOINT RightArm
              {
                OFFSET 13.0012 0 0
                CHANNELS 3 Zrotation Xrotation Yrotation
                JOINT RightForeArm
                {
                  OFFSET 28.7848 1.62311e-005 0
                  CHANNELS 3 Zrotation Xrotation Yrotation
                  JOINT RightHand
                  {
                    OFFSET 26.5688 1.62095e-005 0
                    CHANNELS 3 Zrotation Xrotation Yrotation
                    End Site
                    {
                      OFFSET 0 0 0
                    }
                  }
                }
              }
            }
            JOINT LeftShoulder
            {
              OFFSET 2.38034 -1.29275 -3.7523
              CHANNELS 3 Zrotation Xrotation Yrotation
              JOINT LeftArm
              {
                OFFSET 16.3182 6.07031e-005 0
                CHANNELS 3 Zrotation Xrotation Yrotation
                JOINT LeftForeArm
                {
                  OFFSET 27.0901 0 0
                  CHANNELS 3 Zrotation Xrotation Yrotation
                  JOINT LeftHand
                  {
                    OFFSET 24.5451 1.51738e-005 0
                    CHANNELS 3 Zrotation Xrotation Yrotation
                    End Site
                    {
                      OFFSET 0 0 0
                    }
                  }
                }
              }
            }
            JOINT Neck
            {
              OFFSET 5.0226 -0.0266342 0
              CHANNELS 3 Zrotation Xrotation Yrotation
              JOINT Head
              {
                OFFSET 6.69364 2.86102e-005 0
                CHANNELS 3 Zrotation Xrotation Yrotation
                End Site
                {
                  OFFSET 0 0 0
                }
              }
            }
          }
        }
      }
    }
  }
}
MOTION
Frames:	10
Frame Time:	0.0416667
41.0492 102.511 -257.884 -136.955 -81.3315 -138.386 -174.098 -6.4502 89.695 -6.13583 -8.08029 1.47783 66.4589 4.01071 -1.2675 19.6005 -8.35586 8.44756 170.588 -1.20257 85.5406 -11.7541 -0.723598 0.195067 65.2936 -2.26848 1.57298 25.0316 0.941676 2.68391 0.384849 7.50277 -89.9152 11.8662 0.805248 0.0832305 0.195604 0.808127 0.0477076 -22.342 0.743001 0.321404 -2.32938 0.742996 0.321405 91.9526 -26.3047 -104.146 46.291 -18.1119 -9.29396 -12.2369 -15.7107 -20.9916 -12.6271 -0.210613 -3.34917 -87.2855 -42.6585 81.4542 -28.1665 31.5562 -18.8196 4.6701 -7.43899 -5.94195 -0.519994 -0.0923541 -4.95967 2.98555 -1.01442 -2.02349 -6.24486 -0.670881 0.17518 
40.9356 102.52 -257.753 -141.111 -81.4886 -142.445 -173.796 -6.6261 90.0999 -6.47246 -7.16445 1.32988 66.8385 4.0939 -1.60312 20.1069 -7.94963 8.20665 170.521 -1.97903 85.6308 -11.0461 -0.38334 0.287622 64.7662 -2.08985 1.09825 25.9413 0.65165 2.3168 0.283636 7.50353 -89.9822 11.8671 0.572478 -0.0256858 0.196287 0.570794 -0.050867 -22.3398 0.553725 0.147554 -2.32715 0.553726 0.147551 91.0067 -26.2599 -106.163 45.849 -19.7185 -7.86455 -9.76698 -9.67579 -20.0169 -11.4307 -0.0210606 -5.16621 -87.2006 -44.6155 81.9696 -26.2597 32.7672 -17.9347 4.15362 -8.3926 -7.20546 -0.779658 -0.0923978 -4.63675 1.91327 -0.818243 -0.637579 -6.06086 -0.696994 -0.552408 
40.7578 102.518 -257.568 -144.271 -81.8573 -145.451 -173.393 -6.54976 90.6242 -6.60557 -6.00085 1.07106 66.8628 4.17322 -1.21534 19.8549 -8.00147 8.05173 170.731 -2.53323 85.9592 -10.4187 0.465609 0.224912 64.6307 -2.02117 1.28569 25.8284 0.729854 2.20591 0.266141 7.52452 -89.9932 11.8252 0.53249 -0.0433136 0.15431 0.530071 -0.0667181 -22.3817 0.520888 0.118729 -2.36905 0.520891 0.118723 91.1962 -26.5127 -105.663 45.3178 -19.0973 -8.05267 -10.8649 -12.0667 -20.8936 -13.5294 -0.142617 -4.06632 -87.0501 -44.4133 82.1712 -26.3002 33.0072 -18.1896 4.08802 -8.83533 -6.95916 -0.615459 -0.092381 -4.76368 1.71667 -1.01299 -0.942383 -5.54757 -0.84729 -0.469162 
40.603 102.525 -257.333 -145.122 -81.8334 -146.275 -173.298 -7.09592 90.7821 -5.97071 -5.77662 1.07652 66.5913 4.13509 -1.2825 20.4959 -7.76905 8.25948 170.755 -2.84495 86.0945 -10.4322 0.526394 0.206011 64.9938 -2.2303 0.791273 25.3138 0.863124 2.5316 0.293354 7.54985 -90.0262 11.7746 0.57112 -0.112596 0.103725 0.565612 -0.137635 -22.4324 0.578557 0.0642618 -2.41977 0.578552 0.0642505 91.19 -26.0415 -105.86 45.5005 -18.9385 -7.81236 -10.8505 -11.7388 -21.1516 -13.8804 -0.206123 -3.55345 -87.2545 -44.9541 81.9463 -25.8957 33.29 -18.2135 3.93345 -8.9759 -7.07988 -1.69918 -0.0923077 -5.28082 1.49131 -0.8285 -0.335244 -5.3004 -0.752022 -0.935714 
40.5962 102.528 -257.118 -145.023 -82.1236 -146.416 -173.738 -7.23417 90.3237 -5.45865 -5.99014 1.39932 66.3334 4.01537 -1.24907 20.4008 -7.83219 8.282 170.674 -2.57895 85.8725 -10.6309 0.731575 0.207017 64.9615 -2.00305 0.972843 25.883 0.550279 2.78026 0.285959 7.51653 -89.9814 11.841 0.577434 -0.0245788 0.170181 0.575791 -0.0499712 -22.366 0.558122 0.150112 -2.35331 0.558124 0.150102 91.0962 -26.7895 -105.765 44.8579 -18.3573 -7.82178 -11.8474 -14.1487 -21.6449 -13.4175 -0.31276 -2.54689 -87.3027 -44.7903 81.8388 -26.41 32.9496 -17.5416 4.27864 -8.69074 -6.89456 -1.75137 -0.0923684 -4.85644 1.16013 -0.838349 -0.624866 -5.15595 -0.720333 -0.977823 
40.4708 102.512 -256.933 -143.989 -82.4108 -145.444 -173.864 -7.10693 90.2353 -5.33217 -6.39943 1.52958 66.5204 4.07658 -1.37547 20.3233 -7.71348 7.98425 170.878 -2.46525 86.0081 -10.4616 0.50273 0.0705077 64.8818 -1.90959 0.506942 25.9023 0.382127 3.36796 0.299037 7.51681 -89.9772 11.8404 0.605481 -0.0190429 0.169623 0.604053 -0.0456703 -22.3666 0.58321 0.163824 -2.35396 0.583202 0.163812 91.1719 -26.8115 -105.599 44.7239 -18.3999 -7.84458 -12.3338 -14.5288 -22.4691 -12.9479 -0.247768 -3.04933 -87.1977 -44.6528 81.9799 -26.4153 33.1964 -17.5767 4.01457 -8.71765 -7.22287 -2.15722 -0.092451 -5.58565 1.57478 -0.662525 -0.687938 -4.93472 -0.540498 -0.694931 
40.3302 102.519 -256.735 -143.416 -82.5247 -144.952 -173.91 -7.20469 90.2098 -5.19612 -6.25116 1.56821 66.4433 4.01245 -1.35521 20.7289 -7.70282 8.37035 170.812 -2.36171 85.9827 -10.7045 0.931851 0.143576 65.208 -1.95686 0.955327 25.5025 0.548533 3.37379 0.306389 7.51788 -89.9896 11.8384 0.614269 -0.0446712 0.167559 0.611712 -0.0716736 -22.3687 0.599298 0.142013 -2.35607 0.599295 0.142006 91.2809 -26.5757 -105.461 44.8823 -17.8134 -8.52986 -12.2071 -14.8907 -21.6708 -13.4007 -0.272646 -2.91132 -87.2981 -45.4717 81.9743 -25.3901 32.8075 -17.9545 4.29204 -7.95739 -6.6808 -1.3689 -0.0828079 -3.59171 1.70708 -0.597669 -0.148753 -4.42309 -0.555459 -1.15271 
40.1034 102.523 -256.584 -141.16 -82.4443 -142.47 -173.69 -7.37938 90.6175 -4.94347 -6.36977 1.53888 66.333 3.91027 -1.36964 21.003 -7.41526 8.10567 171.059 -2.49478 86.395 -10.456 0.815378 0.0994491 65.0873 -1.99785 0.743554 25.768 0.273886 3.97265 0.298008 7.52251 -90.0413 11.8294 0.573261 -0.143288 0.158587 0.566407 -0.168382 -22.3776 0.589819 0.0356286 -2.36493 0.589827 0.0356359 91.3706 -26.258 -105.395 44.8012 -18.2436 -8.31049 -12.3023 -14.0893 -22.6946 -13.878 -0.312962 -2.63368 -87.1871 -46.0986 82.2637 -25.2933 32.2545 -17.783 4.44713 -7.92636 -7.06912 -1.51801 -0.0847468 -3.67418 2.50679 -0.479263 0.606776 -4.89654 -0.553385 -1.36885 
39.8721 102.484 -256.463 -136.66 -82.5921 -138.021 -173.615 -6.69579 90.7062 -5.23491 -6.64056 1.44786 66.4794 3.99475 -1.48035 20.8199 -7.6162 8.29984 171.105 -1.8142 86.5121 -10.9642 0.588116 0.209195 65.469 -2.17367 0.656527 25.2393 0.628825 3.48428 0.278807 7.51728 -90.0497 11.8398 0.531109 -0.155695 0.168921 0.523748 -0.17892 -22.3671 0.553342 0.0111291 -2.35446 0.553346 0.0111323 91.2724 -26.3293 -105.574 44.4226 -18.2159 -8.99319 -12.3513 -14.4325 -22.352 -13.9194 -0.240429 -3.2638 -86.9686 -46.4356 82.6677 -23.9749 33.4124 -18.6787 3.69592 -9.90233 -7.24122 -1.65246 -0.0990399 -5.72444 3.38184 -0.404135 0.682223 -4.88993 -0.49604 -1.33107 
39.4941 102.466 -256.241 -134.194 -82.4445 -135.299 -172.965 -6.74844 91.4538 -5.33153 -6.35045 1.00598 66.5355 4.07249 -1.50048 21.1894 -7.41814 8.30029 171.45 -1.97914 87.0497 -10.8516 0.392959 0.122816 65.4757 -2.28882 0.748946 25.9327 0.704565 2.13967 0.299714 7.50174 -90.0865 11.8711 0.555323 -0.231896 0.200226 0.544586 -0.256122 -22.3359 0.599352 -0.0542691 -2.32321 0.599346 -0.0542803 91.3322 -26.463 -105.396 44.2189 -18.7705 -8.69703 -12.1175 -13.9011 -22.4403 -13.5936 -0.280102 -2.86715 -87.3186 -46.6234 82.1537 -23.9288 33.3712 -18.235 3.68868 -10.0494 -7.94588 -1.58753 -0.0987551 -5.844 3.33509 -0.455134 0.567953 -4.87651 -0.530593 -1.052 
